<svg width="24" height="24" viewBox="0 0 24 24" fill="none" xmlns="http://www.w3.org/2000/svg">
<path d="M8.98452 17.2391C8.87683 17.1109 8.82043 16.9724 8.81529 16.8237C8.81016 16.675 8.86657 16.5416 8.98452 16.4237L13.423 11.9852L8.96914 7.52176C8.86144 7.42047 8.81016 7.28618 8.81529 7.11888C8.82043 6.95158 8.87683 6.81408 8.98452 6.70638C9.11272 6.57818 9.24861 6.51665 9.39219 6.52178C9.53577 6.52691 9.66654 6.58845 9.78449 6.70638L14.5479 11.4795C14.6249 11.5564 14.6816 11.6349 14.7181 11.715C14.7547 11.7952 14.7729 11.8852 14.7729 11.9852C14.7729 12.0788 14.7547 12.1673 14.7181 12.2506C14.6816 12.3339 14.6249 12.4141 14.5479 12.491L9.79989 17.2391C9.68194 17.357 9.54861 17.4118 9.39989 17.4035C9.25118 17.3951 9.11272 17.3403 8.98452 17.2391Z" fill="white"/>
</svg>
